<svg xmlns="http://www.w3.org/2000/svg" width="139.445" height="46.053" viewBox="0 0 139.445 46.053">
   <g transform="translate(-840.081 -563.813)">
      <path fill="#fff" d="M840.086,614.092c-.151-5.349,3.439-9.742,8.755-9.932,8.2-.292,16.416-.137,24.624-.226.679-.007,1.564.511,2.08-.436q-.187-.153-.114-.29t.138-.134c.024-2.493.095-4.987.05-7.479-.02-1.084.266-1.507,1.426-1.478,2.992.075,5.99-.065,8.979.049a9.648,9.648,0,0,1,8.921,8.079c.23,1.276.66,1.867,2.051,1.754.932-.076,1.291-.224,1.422-1.287a9.742,9.742,0,0,1,7.685-8.394c1.494-.365,2.231-.2,2.15,1.631-.133,2.988-.036,5.986-.036,8.979,0,5.49-1.116,7.194-6.062,9.252a57.507,57.507,0,0,1-13.6-.143c-.01-2.134-.046-4.268-.02-6.4a3.239,3.239,0,0,0-.824-2.34c-.494-.546-1.129-1.1-1.816-.91-.789.223-.358,1.093-.369,1.657-.086,4.43-2.648,6.814-6.579,8.1-.473.476-1.076.28-1.622.28q-17.829.017-35.659,0C841.133,614.423,840.509,614.677,840.086,614.092Z" transform="translate(0 -17.307)"/>
      <path fill="#fff" d="M894.879,654.453c-1.924,2.8-4.046,3.774-6.336,3.017a5.069,5.069,0,0,1-.14-9.6c2.488-.8,4.5.094,6.5,2.986,1.1-1.594,2.218-3.111,4.407-3.161a5.02,5.02,0,0,1,3.909,1.331,5.092,5.092,0,0,1-.166,7.419C900.492,658.644,897.289,657.911,894.879,654.453Z" transform="translate(-25.677 -47.851)"/>
      <path fill="#fff" d="M976,568.875a4.724,4.724,0,0,1,4.852-5.021,4.977,4.977,0,0,1,.1,9.953A4.737,4.737,0,0,1,976,568.875Z" transform="translate(-77.629 -0.024)"/>
      <path fill="#fff" d="M1074.216,585.365a8.544,8.544,0,0,0-4.4-7.152,9.944,9.944,0,0,0-15.043,6.465c-.152.666.292,1.812-1.077,1.993-1.738.23-2.478-.288-2.24-2.155.656-5.169-4.071-10.563-9.494-10.9-3.713-.233-7.419-.157-11.124-.116-1.663.018-2.092-.515-1.992-2.079.128-1.991-.082-4.005.066-5.993.125-1.683-.732-1.738-1.939-1.518a9.744,9.744,0,0,0-7.662,7.464c-.7,3.319-.13,6.692-.37,10.028-.125,1.741.374,2.339,2.213,2.3,6.138-.115,12.281-.058,18.421-.022.64,0,1.422-.405,1.934.375q-.064,0-.118.153c-.035.1.018.187.159.267q0,.646,0,1.292a2.7,2.7,0,0,1-2.029.421q-10.77.015-21.541,0a2.681,2.681,0,0,1-2.028-.421c-.024-.356-.068-.711-.068-1.067q-.007-8.148-.006-16.294c0-.763.205-1.552-1.15-1.4a9.856,9.856,0,0,0-8.679,9.363c-.055,6.789,0,13.578.014,20.367.434.753,1.158.377,1.729.378q29.009.036,58.018.009c.617,0,1.292.224,1.846-.271,2.86-.854,5.215-2.31,6.172-5.343A17.262,17.262,0,0,0,1074.216,585.365Zm-9.679,2.872a1.309,1.309,0,0,1-1.516-1.386,1.357,1.357,0,0,1,1.383-1.549c.9-.037,1.391.571,1.611,1.426C1065.864,587.563,1065.473,588.211,1064.537,588.238Z" transform="translate(-94.778)"/>
   </g>
</svg>