<svg xmlns="http://www.w3.org/2000/svg" width="181.57" height="32.831" viewBox="0 0 181.57 32.831">
  <g transform="translate(-768.67 -507.167)">
    <path fill="#fff" d="M803,539.551c-1.979,0-3.769.01-5.558,0-.768-.006-1.536-.063-2.6-.11V521.318l-.758-.319-8.241,12.435L777.8,521.305l-.566.194v17.88H768.67V507.29c8.656.115,13.354,5.59,17.294,13.058,3.74-7.43,8.46-12.758,17.037-13.084Z" transform="translate(0 -0.051)"/>
    <path fill="#fff" d="M1122.765,526.592h-15.3V532.2c3.262,0,6.38-.04,9.5.009,4.6.073,7.512,2.682,7.883,7.12H1098.9v-32.1c6.614,0,13.046-.17,19.463.066a6.707,6.707,0,0,1,6.173,7.167h-16.7c-.241.359-.388.479-.4.613-.5,4.838-.5,4.837,4.231,4.839,1.728,0,3.459-.065,5.183.03A6.272,6.272,0,0,1,1122.765,526.592Z" transform="translate(-174.607)"/>
    <path fill="#fff" d="M925.87,531.309c-3.772,1.995-2.265,5.4-2.8,8.3h-8.313V507.667a7.393,7.393,0,0,1,7.6,5.255c.791,3.134.833,6.457,1.26,10.179,1.577-1.912,3.149-3.585,4.443-5.451,1.418-2.045,3.075-3.078,5.657-2.736a50.65,50.65,0,0,0,6.047.045c-2.267,2.637-4.05,5.068-6.2,7.111-2.023,1.92-2.1,3.444-.539,5.738,2.532,3.726,4.68,7.713,7.2,11.944-3.1,0-5.75.1-8.379-.072-.642-.042-1.389-.866-1.808-1.512C928.592,535.949,927.276,533.649,925.87,531.309Z" transform="translate(-77.241 -0.263)"/>
    <path fill="#fff" d="M1042.894,525.927c2.657-2.8,5.323-4.288,8.833-3.959,3.631.341,6.7,2.527,6.9,6.172.334,6.237.092,12.5.092,18.952h-7.959c0-2.272.028-4.667-.008-7.061-.035-2.349.013-4.713-.247-7.04-.293-2.623-1.707-3.752-4.016-3.621a3.878,3.878,0,0,0-3.734,4.058c-.11,3.683-.034,7.372-.037,11.058,0,.844,0,1.688,0,2.669h-8.123V522.668h7.969C1042.66,523.639,1042.747,524.481,1042.894,525.927Z" transform="translate(-140.605 -7.802)"/>
    <path fill="#fff" d="M995.511,531.78c-.1-4.658-2.765-8.058-7.367-8.683a42.526,42.526,0,0,0-10.483.026c-4.346.5-4.383.84-3.134,4.965.193.638.475,1.249.587,1.541,2.81-.258,5.36-.69,7.908-.675,2.989.017,4.438,1.922,3.951,4.538a70.806,70.806,0,0,0-7.194-.544c-5.68.124-8.908,3.486-8.549,8.626.309,4.423,4.285,7.315,9.61,6.564,2.145-.3,4.164-1.5,6.293-2.3l.336,1.82h8.067C995.536,542.244,995.618,537.01,995.511,531.78ZM982.9,543.229c-2.134.013-3.53-1.28-3.473-3.213.063-2.12,1.637-3.226,4.748-3.2,1.152.317,3.214-.53,3.213,2.025A4.308,4.308,0,0,1,982.9,543.229Z" transform="translate(-107.089 -8.257)"/>
    <path fill="#fff" d="M876.361,531.685c-.163-4.148-2.005-7.391-6.27-8.69a23.161,23.161,0,0,0-14.532.551,1.8,1.8,0,0,0-.983,1.425,47.074,47.074,0,0,0,1.292,4.582c9.106-1.971,12.338-.969,11.988,3.565a71,71,0,0,0-7.579-.534c-5.534.185-8.417,3.359-8.163,8.647.2,4.242,3.667,7.031,8.839,6.541,2.361-.223,4.628-1.446,7.007-2.239l.52,1.63h7.928C876.409,541.869,876.561,536.77,876.361,531.685Zm-12.633,11.167c-2.1.063-3.669-1.22-3.7-3.031-.035-1.987,1.62-3.415,4.2-3.341,1.524.044,3.593-.648,3.935,1.35A4.568,4.568,0,0,1,863.728,542.852Z" transform="translate(-44.113 -7.881)"/>
  </g>
</svg>
