<svg xmlns="http://www.w3.org/2000/svg" width="72.288" height="52" viewBox="0 0 72.288 52"><defs><style>.a{fill:#641fff;}.b{fill:none;}</style></defs><g transform="translate(0.114 -0.044)"><g transform="translate(0.171 0.168)"><g transform="translate(9.6 37.202)"><path class="a" d="M75.467,337.067a7.2,7.2,0,1,0,7.2,7.2A7.208,7.208,0,0,0,75.467,337.067Zm0,12a4.8,4.8,0,1,1,4.8-4.8A4.8,4.8,0,0,1,75.467,349.068Z" transform="translate(-68.267 -337.067)"/></g><g transform="translate(50.402 37.202)"><path class="a" d="M365.6,337.067a7.2,7.2,0,1,0,7.2,7.2A7.207,7.207,0,0,0,365.6,337.067Zm0,12a4.8,4.8,0,1,1,4.8-4.8A4.8,4.8,0,0,1,365.6,349.068Z" transform="translate(-358.4 -337.067)"/></g><g transform="translate(45.602 13.201)"><path class="a" d="M350.477,183.752l-10.8-16.8a1.2,1.2,0,0,0-1.009-.551h-13.2a1.2,1.2,0,0,0-1.2,1.2v30a1.2,1.2,0,0,0,1.2,1.2h4.8v-2.4h-3.6V168.8h11.345l10.256,15.953V196.4h-6v2.4h7.2a1.2,1.2,0,0,0,1.2-1.2V184.4A1.2,1.2,0,0,0,350.477,183.752Z" transform="translate(-324.267 -166.4)"/></g><g transform="translate(50.402 18.001)"><path class="a" d="M360.8,211.333v-8.4h9.6v-2.4H359.6a1.2,1.2,0,0,0-1.2,1.2v10.8a1.2,1.2,0,0,0,1.2,1.2h18v-2.4H360.8Z" transform="translate(-358.401 -200.533)"/></g><g transform="translate(0 4.8)"><path class="a" d="M46.8,106.667H1.2a1.2,1.2,0,0,0-1.2,1.2v38.4a1.2,1.2,0,0,0,1.2,1.2h9.6v-2.4H2.4v-36H45.6v36H22.8v2.4h24a1.2,1.2,0,0,0,1.2-1.2v-38.4A1.2,1.2,0,0,0,46.8,106.667Z" transform="translate(0 -106.667)"/></g><g transform="translate(1.2 38.402)"><rect class="a" width="7.2" height="2.4"/></g><g transform="translate(25.201 38.402)"><rect class="a" width="20.401" height="2.4"/></g><g transform="translate(66.003 38.402)"><rect class="a" width="4.8" height="2.4"/></g><g transform="translate(4.8 9.6)"><rect class="a" width="42.002" height="2.4"/></g><g transform="translate(15.601 43.202)"><rect class="a" width="2.4" height="2.4"/></g><g transform="translate(56.402 43.202)"><rect class="a" width="2.4" height="2.4"/></g><g transform="translate(4.8)"><rect class="a" width="16.801" height="2.4"/></g><rect class="a" width="2.4" height="2.4"/></g><rect class="b" width="72" height="52" transform="translate(-0.114 0.044)"/></g></svg>