<svg xmlns="http://www.w3.org/2000/svg" width="72.07" height="72.003" viewBox="0 0 72.07 72.003"><defs><style>.a{fill:#641fff;}.b{fill:none;}</style></defs><g transform="translate(-0.102 -0.171)"><g transform="translate(0.171 0.171)"><g transform="translate(16.739)"><path class="a" d="M120.443,0a1.406,1.406,0,0,0,0,2.813A14.615,14.615,0,0,1,134.852,17.6a1.406,1.406,0,0,0,2.813,0A17.431,17.431,0,0,0,120.443,0Z" transform="translate(-119.037)"/></g><g transform="translate(16.735 6.673)"><path class="a" d="M120.41,47.447a1.406,1.406,0,0,0,0,2.813,8.011,8.011,0,0,1,7.89,8.11,1.406,1.406,0,1,0,2.813,0A10.826,10.826,0,0,0,120.41,47.447Z" transform="translate(-119.004 -47.447)"/></g><g transform="translate(16.762 12.819)"><path class="a" d="M120.6,91.155a1.406,1.406,0,0,0,0,2.813,1.885,1.885,0,0,1,1.843,1.92,1.406,1.406,0,0,0,2.813,0A4.7,4.7,0,0,0,120.6,91.155Z" transform="translate(-119.198 -91.155)"/></g><g transform="translate(38.528 11.147)"><path class="a" d="M299.918,79.265H296.8a1.406,1.406,0,1,0,0,2.813h3.118a4.717,4.717,0,0,1,4.712,4.712v19.092a4.7,4.7,0,0,1-1.792,3.694V105.9a5.963,5.963,0,0,0-4.868-5.86l-.909-.169a6.347,6.347,0,0,0,.314-1.972V94.663a6.373,6.373,0,1,0-12.746,0V97.9a6.35,6.35,0,0,0,.314,1.972l-.909.169a5.963,5.963,0,0,0-4.868,5.86v4.077a4.714,4.714,0,0,1-2.382-4.093V86.79a4.717,4.717,0,0,1,4.712-4.712h3.352a1.406,1.406,0,0,0,0-2.813h-3.352a7.533,7.533,0,0,0-7.525,7.525v19.092a7.533,7.533,0,0,0,7.525,7.525h7.077v4.044a1.407,1.407,0,0,0,2.4,1l5.073-5.042h3.876a7.533,7.533,0,0,0,7.525-7.525V86.79A7.533,7.533,0,0,0,299.918,79.265Zm-12.478,15.4a3.56,3.56,0,1,1,7.121,0V97.9a3.56,3.56,0,1,1-7.121,0Zm12.584,15.927-.107,0h-4.456a1.407,1.407,0,0,0-.991.409l-3.087,3.068V112a1.407,1.407,0,0,0-1.406-1.406h-8v-4.7a3.15,3.15,0,0,1,2.571-3.095l1.983-.37a6.36,6.36,0,0,0,8.94,0l1.983.37a3.149,3.149,0,0,1,2.571,3.1v4.693Z" transform="translate(-273.969 -79.265)"/></g><g transform="translate(53.296 11.148)"><path class="a" d="M381.381,79.681a1.406,1.406,0,1,0,.412.994A1.411,1.411,0,0,0,381.381,79.681Z" transform="translate(-378.98 -79.269)"/></g><g transform="translate(23.739 46.901)"><path class="a" d="M171.207,333.919a1.406,1.406,0,1,0,.412.994A1.415,1.415,0,0,0,171.207,333.919Z" transform="translate(-168.806 -333.507)"/></g><g transform="translate(0 13.845)"><path class="a" d="M56.93,144.634,46.155,133.859a4.222,4.222,0,0,0-5.365-.5l-6.877,4.7a1.407,1.407,0,0,1-1.788-.167l-2.274-2.274a1.407,1.407,0,0,0-1.989,1.989l2.274,2.274a4.221,4.221,0,0,0,5.365.5l6.877-4.7a1.407,1.407,0,0,1,1.788.167l10.775,10.775a1.408,1.408,0,0,1,0,1.989,17.741,17.741,0,0,1-25.062,0L8,126.732A17.722,17.722,0,0,1,8,101.67a1.407,1.407,0,0,1,1.989,0l10.775,10.775a1.408,1.408,0,0,1,.167,1.788l-4.7,6.877a4.222,4.222,0,0,0,.5,5.365l3.418,3.418a1.407,1.407,0,0,0,1.989-1.989l-3.418-3.418a1.407,1.407,0,0,1-.167-1.788l4.7-6.877a4.222,4.222,0,0,0-.5-5.365L11.978,99.681a4.225,4.225,0,0,0-5.967,0,20.558,20.558,0,0,0,0,29.04L27.89,150.6a20.557,20.557,0,0,0,29.04,0A4.224,4.224,0,0,0,56.93,144.634Z" transform="translate(-0.006 -98.447)"/></g><g transform="translate(8.019 25.646)"><path class="a" d="M67.954,191.3l-8.526-8.526a1.407,1.407,0,0,0-1.989,1.989l8.526,8.526a1.407,1.407,0,0,0,1.989-1.989Z" transform="translate(-57.027 -182.365)"/></g><g transform="translate(40.205 57.832)"><path class="a" d="M297.27,420.617l-8.971-8.971a1.407,1.407,0,1,0-1.989,1.989l8.971,8.971a1.407,1.407,0,0,0,1.989-1.989Z" transform="translate(-285.898 -411.235)"/></g></g><rect class="b" width="72" height="72" transform="translate(0.102 0.172)"/></g></svg>