<svg xmlns="http://www.w3.org/2000/svg" width="72.072" height="72.003" viewBox="0 0 72.072 72.003"><defs><style>.a{fill:#641fff;}.b{fill:none;}</style></defs><g transform="translate(-0.171 -0.171)"><g transform="translate(0.171 0.171)"><g transform="translate(0)"><path class="a" d="M5.983,29.575V51.26a1.055,1.055,0,1,0,2.109,0V29.575a6.037,6.037,0,0,0,3.917-2.531,6.02,6.02,0,0,0,9.944,0,6.02,6.02,0,0,0,9.944,0,6.02,6.02,0,0,0,9.944,0,6.02,6.02,0,0,0,9.944,0,6.02,6.02,0,0,0,9.944,0,6.037,6.037,0,0,0,3.917,2.531v3.966a1.055,1.055,0,1,0,2.109,0V29.575a6.036,6.036,0,0,0,4.973-5.933v-2.7h0a1.052,1.052,0,0,0-.112-.477l-9.3-18.332A3.877,3.877,0,0,0,59.843,0H13.9a3.878,3.878,0,0,0-3.475,2.134l-9.3,18.332a1.052,1.052,0,0,0-.112.477h0v2.7a6.036,6.036,0,0,0,4.973,5.933ZM7.037,27.56A3.922,3.922,0,0,1,3.12,23.642V22h7.835v1.644A3.922,3.922,0,0,1,7.037,27.56ZM25.043,2.109,21.106,19.888H13.516L19.992,2.109Zm7.276,0-1.4,17.779H23.267L27.2,2.109Zm6.985,0,1.4,17.779H33.038l1.4-17.779Zm7.231,0,3.937,17.779H42.817L41.42,2.109Zm7.211,0,6.477,17.779H52.633L48.7,2.109ZM16.981,27.56a3.922,3.922,0,0,1-3.917-3.917V22H20.9v1.644A3.922,3.922,0,0,1,16.981,27.56Zm9.944,0a3.922,3.922,0,0,1-3.917-3.917V22h7.835v1.644A3.922,3.922,0,0,1,26.925,27.56Zm9.944,0a3.922,3.922,0,0,1-3.917-3.917V22h7.835v1.644a3.922,3.922,0,0,1-3.917,3.917Zm9.944,0A3.922,3.922,0,0,1,42.9,23.642V22h7.835v1.644A3.922,3.922,0,0,1,46.814,27.56Zm9.944,0a3.922,3.922,0,0,1-3.917-3.917V22h7.835v1.644A3.922,3.922,0,0,1,56.758,27.56Zm9.944,0a3.922,3.922,0,0,1-3.917-3.917V22h7.835v1.644A3.922,3.922,0,0,1,66.7,27.56ZM61.436,3.088l8.52,16.8H62.468L55.992,2.109h3.851A1.778,1.778,0,0,1,61.436,3.088Zm-49.134,0A1.778,1.778,0,0,1,13.9,2.109h3.851L11.271,19.888H3.782Z" transform="translate(-0.868 0)"/><path class="a" d="M223.291,252.541a1.055,1.055,0,0,0-1.055,1.055V278.03a1.055,1.055,0,0,0,1.055,1.055h28.98a1.055,1.055,0,0,0,1.055-1.055V253.6a1.055,1.055,0,0,0-1.055-1.055Zm1.055,2.109h26.871V272.43H224.345Zm26.871,22.325H224.345v-2.436h26.871Z" transform="translate(-190.983 -217.026)"/><path class="a" d="M158.64,334.364a1.055,1.055,0,0,0-1.055,1.055V341.1a1.055,1.055,0,0,0,2.109,0v-5.682A1.055,1.055,0,0,0,158.64,334.364Z" transform="translate(-135.424 -287.342)"/><path class="a" d="M69.528,282.373h-2.64V255.488a1.055,1.055,0,0,0-2.109,0v26.884H28.817V253.6a1.055,1.055,0,0,0-1.055-1.055H10.715A1.055,1.055,0,0,0,9.66,253.6v28.777H7.224v-9.165a1.055,1.055,0,1,0-2.109,0v9.165H2.475A2.479,2.479,0,0,0,0,284.849v1.7a2.478,2.478,0,0,0,2.475,2.475H57.123a1.055,1.055,0,1,0,0-2.109H2.475a.366.366,0,0,1-.366-.366v-1.7a.367.367,0,0,1,.366-.367H69.528a.367.367,0,0,1,.366.367v1.7a.366.366,0,0,1-.366.366H62.045a1.055,1.055,0,1,0,0,2.109h7.483A2.478,2.478,0,0,0,72,286.554v-1.7A2.479,2.479,0,0,0,69.528,282.373ZM11.77,254.65H26.707v27.722H11.77Z" transform="translate(0 -217.026)"/><path class="a" d="M292.242,294.005l-4.83-1.989a1.055,1.055,0,0,0-1.2.289l-1.389,1.62h-2.214a5.323,5.323,0,0,0-5.317,5.317V301.8a1.055,1.055,0,0,0,1.055,1.055h13.5A1.055,1.055,0,0,0,292.9,301.8V294.98A1.054,1.054,0,0,0,292.242,294.005Zm-1.456,6.739H279.4v-1.5a3.211,3.211,0,0,1,3.207-3.207h2.7a1.055,1.055,0,0,0,.8-.368l1.208-1.409,3.471,1.429Z" transform="translate(-238.294 -250.881)"/></g></g><rect class="b" width="72" height="72" transform="translate(0.242 0.172)"/></g></svg>